<svg width="20" height="20" viewBox="0 0 20 20" fill="none" xmlns="http://www.w3.org/2000/svg">
                                        <path d="M7.25829 6.425L9.16663 4.50833V12.5C9.16663 12.721 9.25442 12.933 9.4107 13.0893C9.56698 13.2455 9.77895 13.3333 9.99996 13.3333C10.221 13.3333 10.4329 13.2455 10.5892 13.0893C10.7455 12.933 10.8333 12.721 10.8333 12.5V4.50833L12.7416 6.425C12.8191 6.50311 12.9113 6.5651 13.0128 6.60741C13.1144 6.64972 13.2233 6.6715 13.3333 6.6715C13.4433 6.6715 13.5522 6.64972 13.6538 6.60741C13.7553 6.5651 13.8475 6.50311 13.925 6.425C14.0031 6.34753 14.0651 6.25536 14.1074 6.15381C14.1497 6.05226 14.1715 5.94334 14.1715 5.83333C14.1715 5.72332 14.1497 5.6144 14.1074 5.51285C14.0651 5.4113 14.0031 5.31914 13.925 5.24167L10.5916 1.90833C10.5124 1.83247 10.4189 1.773 10.3166 1.73333C10.1137 1.64999 9.88618 1.64999 9.68329 1.73333C9.581 1.773 9.48755 1.83247 9.40829 1.90833L6.07496 5.24167C5.99726 5.31937 5.93563 5.41161 5.89358 5.51313C5.85153 5.61464 5.82988 5.72345 5.82988 5.83333C5.82988 5.94322 5.85153 6.05202 5.89358 6.15354C5.93563 6.25506 5.99726 6.3473 6.07496 6.425C6.15266 6.5027 6.2449 6.56433 6.34642 6.60638C6.44794 6.64843 6.55674 6.67008 6.66663 6.67008C6.77651 6.67008 6.88532 6.64843 6.98683 6.60638C7.08835 6.56433 7.18059 6.5027 7.25829 6.425ZM17.5 10C17.2789 10 17.067 10.0878 16.9107 10.2441C16.7544 10.4004 16.6666 10.6123 16.6666 10.8333V15.8333C16.6666 16.0543 16.5788 16.2663 16.4225 16.4226C16.2663 16.5789 16.0543 16.6667 15.8333 16.6667H4.16663C3.94561 16.6667 3.73365 16.5789 3.57737 16.4226C3.42109 16.2663 3.33329 16.0543 3.33329 15.8333V10.8333C3.33329 10.6123 3.2455 10.4004 3.08921 10.2441C2.93293 10.0878 2.72097 10 2.49996 10C2.27895 10 2.06698 10.0878 1.9107 10.2441C1.75442 10.4004 1.66663 10.6123 1.66663 10.8333V15.8333C1.66663 16.4964 1.93002 17.1323 2.39886 17.6011C2.8677 18.0699 3.50358 18.3333 4.16663 18.3333H15.8333C16.4963 18.3333 17.1322 18.0699 17.6011 17.6011C18.0699 17.1323 18.3333 16.4964 18.3333 15.8333V10.8333C18.3333 10.6123 18.2455 10.4004 18.0892 10.2441C17.9329 10.0878 17.721 10 17.5 10Z" fill="white"/>
                                        </svg>